<?xml version="1.0"?>
<svg width="659" height="440" xmlns="http://www.w3.org/2000/svg" xmlns:svg="http://www.w3.org/2000/svg">
 <defs>
  <clipPath id="clip0_9045_20711">
   <rect fill="white" height="110" id="svg_1" transform="translate(86.7935 165)" width="485.91"/>
  </clipPath>
 </defs>
 <g class="layer">
  <title>Layer 1</title>
  <rect fill="white" height="439" id="svg_2" rx="23.5" width="657.5" x="1" y="0.5"/>
  <g clip-path="url(#clip0_9045_20711)" id="svg_4">
   <path d="m224.53,210.19c-3.44,-2.3 -12.46,-3.28 -19.01,-1.52c-0.35,-6.5 -3.72,-11.98 -9.89,-16.76l-2.27,-1.52l-1.52,2.28c-2.99,4.52 -4.25,10.53 -3.81,16c0.36,3.37 1.53,7.16 3.81,9.9c-8.54,4.93 -16.41,3.81 -51.25,3.81l-53.78,0c-0.16,7.84 1.1,22.9 10.73,35.16c1.06,1.36 2.22,2.66 3.49,3.93c7.82,7.8 19.64,13.52 37.32,13.53c26.97,0.02 50.07,-14.49 64.13,-49.57c4.62,0.08 16.83,0.83 22.8,-10.66c0.15,-0.2 1.52,-3.05 1.52,-3.05l-2.27,-1.52l0,-0.01zm-102.62,-7.16l-15.13,0l0,15.06l15.13,0l0,-15.06zm19.54,0l-15.13,0l0,15.06l15.13,0l0,-15.06zm19.54,0l-15.12,0l0,15.06l15.12,0l0,-15.06zm19.54,0l-15.12,0l0,15.06l15.12,0l0,-15.06zm-78.16,0l-15.13,0l0,15.06l15.13,0l0,-15.06zm19.54,-19.01l-15.13,0l0,15.05l15.13,0l0,-15.05zm19.54,0l-15.13,0l0,15.05l15.13,0l0,-15.05zm19.54,0l-15.12,0l0,15.05l15.12,0l0,-15.05zm0,-19.02l-15.12,0l0,15.06l15.12,0l0,-15.06z" fill="#1D63ED" id="svg_5"/>
   <path d="m571.77,251.9c0,3.92 -3.1,7 -7.13,7c-4.02,0 -7.16,-3.08 -7.16,-7c0,-3.93 3.18,-6.93 7.16,-6.93c3.99,0 7.13,3.09 7.13,6.93zm-12.51,0c0,3.08 2.29,5.52 5.43,5.52c3.14,0 5.3,-2.44 5.3,-5.48c0,-3.04 -2.25,-5.57 -5.34,-5.57c-3.09,0 -5.39,2.49 -5.39,5.53l0,0zm4.29,3.63l-1.62,0l0,-6.93c0.64,-0.12 1.53,-0.21 2.67,-0.21c1.32,0 1.91,0.21 2.42,0.51c0.38,0.29 0.68,0.84 0.68,1.52c0,0.76 -0.59,1.35 -1.44,1.6l0,0.09c0.68,0.25 1.06,0.76 1.27,1.68c0.21,1.06 0.34,1.48 0.51,1.74l-1.74,0c-0.21,-0.26 -0.34,-0.89 -0.55,-1.69c-0.13,-0.76 -0.55,-1.1 -1.44,-1.1l-0.76,0l0,2.79l0,0zm0.04,-3.93l0.76,0c0.89,0 1.61,-0.29 1.61,-1.01c0,-0.63 -0.46,-1.06 -1.48,-1.06c-0.43,0 -0.73,0.04 -0.89,0.09l0,1.98z" fill="#1D63ED" id="svg_6"/>
   <path d="m298.56,181.84c-1,-0.96 -2.19,-1.46 -3.63,-1.46c-1.43,0 -2.67,0.5 -3.63,1.46c-0.96,0.97 -1.43,2.22 -1.43,3.7l0,24.74c-4.93,-4.06 -10.63,-6.1 -17.1,-6.1c-7.53,0 -13.97,2.7 -19.3,8.13c-5.34,5.42 -7.98,11.97 -7.98,19.65c0,7.68 2.66,14.21 7.98,19.64c5.33,5.41 11.75,8.14 19.3,8.14c7.54,0 13.89,-2.71 19.3,-8.14c5.33,-5.36 7.98,-11.91 7.98,-19.64l0,-46.42c0,-1.48 -0.49,-2.73 -1.49,-3.7zm-10.03,56.81l0,0.04c-0.89,2.1 -2.11,3.95 -3.65,5.52c-1.54,1.59 -3.35,2.84 -5.42,3.77c-2.09,0.93 -4.3,1.39 -6.67,1.39c-2.38,0 -4.65,-0.46 -6.73,-1.39c-2.09,-0.93 -3.89,-2.18 -5.41,-3.75c-1.52,-1.57 -2.74,-3.42 -3.63,-5.52c-0.88,-2.13 -1.34,-4.37 -1.34,-6.75c0,-2.38 0.46,-4.63 1.34,-6.75c0.89,-2.12 2.11,-3.95 3.63,-5.53c1.53,-1.57 3.34,-2.81 5.41,-3.74c2.08,-0.94 4.31,-1.4 6.73,-1.4c2.41,0 4.58,0.46 6.67,1.4c2.09,0.93 3.88,2.17 5.42,3.76c1.54,1.59 2.76,3.44 3.65,5.53c0.89,2.1 1.34,4.33 1.34,6.71c0,2.37 -0.45,4.63 -1.34,6.71z" fill="#1D63ED" id="svg_7"/>
   <path d="m523.95,221.29c-1.32,-3.29 -3.34,-6.27 -5.99,-8.94l-0.03,-0.02c-5.39,-5.41 -11.83,-8.14 -19.3,-8.14c-7.47,0 -13.97,2.71 -19.3,8.14c-5.34,5.41 -7.98,11.96 -7.98,19.64c0,7.68 2.66,14.21 7.98,19.65c5.33,5.41 11.75,8.13 19.3,8.13c6.85,0 12.78,-2.25 17.83,-6.74c0.97,-1.03 1.47,-2.27 1.47,-3.72c0,-1.44 -0.47,-2.72 -1.44,-3.69c-0.96,-0.97 -2.17,-1.47 -3.62,-1.47c-1.27,0.04 -2.4,0.46 -3.36,1.3c-1.52,1.32 -3.17,2.33 -4.97,2.98c-1.79,0.66 -3.75,0.99 -5.89,0.99c-1.89,0 -3.7,-0.29 -5.42,-0.89c-1.73,-0.6 -3.34,-1.43 -4.78,-2.51c-1.45,-1.08 -2.7,-2.35 -3.77,-3.87c-1.07,-1.5 -1.88,-3.17 -2.43,-5l38.59,0c1.43,0 2.62,-0.49 3.62,-1.46c1,-0.97 1.49,-2.21 1.49,-3.7c0,-3.84 -0.67,-7.4 -1.99,-10.68l-0.01,0zm-41.74,5.53c0.53,-1.81 1.33,-3.48 2.4,-5c1.07,-1.5 2.34,-2.79 3.79,-3.87c1.47,-1.08 3.06,-1.91 4.82,-2.51c1.76,-0.6 3.55,-0.89 5.41,-0.89c1.85,0 3.64,0.29 5.38,0.89c1.75,0.6 3.35,1.43 4.78,2.51c1.45,1.08 2.72,2.36 3.79,3.87c1.08,1.5 1.9,3.17 2.46,5l-32.83,0l0,0z" fill="#1D63ED" id="svg_8"/>
   <path d="m571.37,207.67c-0.91,-0.9 -2.05,-1.59 -3.43,-2.11c-1.38,-0.51 -2.89,-0.85 -4.54,-1.06c-1.63,-0.2 -3.17,-0.29 -4.6,-0.29c-3.25,0 -6.3,0.53 -9.16,1.59c-2.87,1.06 -5.52,2.58 -7.95,4.56l0,-0.99c0,-1.43 -0.49,-2.63 -1.49,-3.64c-0.99,-1.01 -2.17,-1.52 -3.57,-1.52c-1.39,0 -2.63,0.51 -3.63,1.52c-1,1.01 -1.48,2.23 -1.48,3.64l0,45.23c0,1.42 0.48,2.63 1.48,3.64c1,1 2.2,1.51 3.63,1.51c1.44,0 2.59,-0.51 3.57,-1.51c1,-1.01 1.49,-2.23 1.49,-3.64l0,-22.63c0,-2.41 0.45,-4.68 1.34,-6.8c0.89,-2.12 2.11,-3.95 3.65,-5.52c1.54,-1.57 3.36,-2.82 5.42,-3.71c2.09,-0.92 4.3,-1.38 6.68,-1.38c2.38,0 4.62,0.42 6.68,1.25c0.81,0.36 1.52,0.55 2.14,0.55c0.7,0 1.37,-0.13 1.99,-0.41c0.62,-0.27 1.16,-0.64 1.62,-1.11c0.45,-0.48 0.81,-1.03 1.08,-1.67c0.28,-0.62 0.42,-1.29 0.42,-2.03c0,-1.42 -0.45,-2.57 -1.36,-3.47l0.02,0l0,0z" fill="#1D63ED" id="svg_9"/>
   <path d="m358.38,221.31c-1.32,-3.27 -3.3,-6.27 -5.97,-8.98c-5.38,-5.41 -11.82,-8.14 -19.3,-8.14c-7.47,0 -13.96,2.71 -19.3,8.14c-5.33,5.42 -7.98,11.96 -7.98,19.65c0,7.68 2.67,14.21 7.98,19.64c5.34,5.41 11.76,8.14 19.3,8.14c7.55,0 13.9,-2.71 19.3,-8.14c5.34,-5.36 7.98,-11.91 7.98,-19.64c-0.03,-3.85 -0.7,-7.39 -2.01,-10.67l0,0zm-9.5,17.34l0,0.04c-0.89,2.1 -2.11,3.95 -3.65,5.52c-1.54,1.59 -3.36,2.84 -5.42,3.77c-2.07,0.93 -4.3,1.39 -6.68,1.39c-2.37,0 -4.64,-0.46 -6.73,-1.39c-2.08,-0.93 -3.88,-2.18 -5.4,-3.75c-1.52,-1.57 -2.74,-3.42 -3.63,-5.52c-0.89,-2.12 -1.34,-4.37 -1.34,-6.75c0,-2.38 0.45,-4.63 1.34,-6.75c0.89,-2.12 2.11,-3.95 3.63,-5.53c1.52,-1.57 3.34,-2.81 5.4,-3.74c2.09,-0.94 4.32,-1.4 6.73,-1.4c2.41,0 4.59,0.46 6.68,1.4c2.08,0.93 3.88,2.17 5.42,3.76c1.54,1.59 2.76,3.44 3.65,5.53c0.88,2.1 1.34,4.33 1.34,6.71c0,2.37 -0.46,4.63 -1.34,6.71z" fill="#1D63ED" id="svg_10"/>
   <path d="m467.5,209.35c0,-0.69 -0.14,-1.35 -0.42,-1.97c-0.27,-0.63 -0.63,-1.19 -1.08,-1.67c-0.46,-0.47 -1,-0.86 -1.62,-1.11c-0.61,-0.26 -1.28,-0.41 -1.99,-0.41c-1.02,0 -1.93,0.26 -2.72,0.79l-29.13,19.3l0,-38.7c0,-1.47 -0.49,-2.69 -1.49,-3.7c-1,-1 -2.18,-1.51 -3.57,-1.51c-1.4,0 -2.63,0.51 -3.63,1.51c-1,1.01 -1.49,2.23 -1.49,3.7l0,68.95c0,1.42 0.49,2.65 1.49,3.67c1,1.03 2.19,1.54 3.63,1.54c1.43,0 2.59,-0.51 3.57,-1.54c1,-1.02 1.49,-2.25 1.49,-3.67l0,-17.91l5.95,-3.97l22.51,25.74c0.9,0.89 2.05,1.33 3.41,1.33c0.7,0 1.37,-0.13 1.99,-0.4c0.62,-0.26 1.16,-0.64 1.61,-1.12c0.46,-0.47 0.82,-1.02 1.09,-1.66c0.28,-0.62 0.42,-1.3 0.42,-1.98c0,-1.35 -0.47,-2.56 -1.42,-3.62l-20.95,-24.01l20.41,-13.5c1.3,-0.89 1.94,-2.26 1.94,-4.11l0,0.03l0,0z" fill="#1D63ED" id="svg_11"/>
   <path d="m381.25,219.65c1.56,-1.57 3.38,-2.82 5.46,-3.71c2.09,-0.92 4.3,-1.38 6.68,-1.38c2.14,0 4.12,0.37 5.95,1.1c1.81,0.73 3.56,1.81 5.2,3.22c0.98,0.78 2.09,1.18 3.32,1.18c1.47,0 2.67,-0.49 3.63,-1.48c0.96,-0.99 1.43,-2.23 1.43,-3.71c0,-1.48 -0.58,-2.85 -1.75,-3.91c-5.01,-4.5 -10.94,-6.75 -17.78,-6.75c-7.53,0 -13.97,2.7 -19.3,8.14c-5.33,5.41 -7.98,11.96 -7.98,19.64c0,7.68 2.67,14.21 7.98,19.64c5.33,5.41 11.76,8.14 19.3,8.14c6.82,0 12.75,-2.25 17.78,-6.75c1.07,-1.1 1.61,-2.36 1.61,-3.82c0,-1.47 -0.47,-2.73 -1.43,-3.7c-0.96,-0.97 -2.18,-1.46 -3.63,-1.46c-1.23,0.04 -2.3,0.4 -3.21,1.09c-1.63,1.43 -3.34,2.49 -5.17,3.21c-1.81,0.71 -3.79,1.06 -5.95,1.06c-2.37,0 -4.59,-0.46 -6.67,-1.38c-2.09,-0.91 -3.9,-2.15 -5.46,-3.71c-1.56,-1.55 -2.8,-3.42 -3.69,-5.52c-0.89,-2.12 -1.34,-4.39 -1.34,-6.8c0,-2.42 0.45,-4.69 1.34,-6.81c0.89,-2.12 2.12,-3.95 3.69,-5.52l0,-0.02l-0.01,0.01z" fill="#1D63ED" id="svg_12"/>
  </g>
 </g>
</svg>